<svg width="854" height="230" viewBox="0 0 854 230" fill="none" xmlns="http://www.w3.org/2000/svg">
<rect x="0.5" y="0.5" width="414" height="59" rx="9.5" fill="white" stroke="#ACBEE8"/>
<path d="M149.58 37.126C148.704 37.126 147.912 36.976 147.204 36.676C146.508 36.376 145.956 35.944 145.548 35.38C145.14 34.816 144.93 34.15 144.918 33.382H147.618C147.654 33.898 147.834 34.306 148.158 34.606C148.494 34.906 148.95 35.056 149.526 35.056C150.114 35.056 150.576 34.918 150.912 34.642C151.248 34.354 151.416 33.982 151.416 33.526C151.416 33.154 151.302 32.848 151.074 32.608C150.846 32.368 150.558 32.182 150.21 32.05C149.874 31.906 149.406 31.75 148.806 31.582C147.99 31.342 147.324 31.108 146.808 30.88C146.304 30.64 145.866 30.286 145.494 29.818C145.134 29.338 144.954 28.702 144.954 27.91C144.954 27.166 145.14 26.518 145.512 25.966C145.884 25.414 146.406 24.994 147.078 24.706C147.75 24.406 148.518 24.256 149.382 24.256C150.678 24.256 151.728 24.574 152.532 25.21C153.348 25.834 153.798 26.71 153.882 27.838H151.11C151.086 27.406 150.9 27.052 150.552 26.776C150.216 26.488 149.766 26.344 149.202 26.344C148.71 26.344 148.314 26.47 148.014 26.722C147.726 26.974 147.582 27.34 147.582 27.82C147.582 28.156 147.69 28.438 147.906 28.666C148.134 28.882 148.41 29.062 148.734 29.206C149.07 29.338 149.538 29.494 150.138 29.674C150.954 29.914 151.62 30.154 152.136 30.394C152.652 30.634 153.096 30.994 153.468 31.474C153.84 31.954 154.026 32.584 154.026 33.364C154.026 34.036 153.852 34.66 153.504 35.236C153.156 35.812 152.646 36.274 151.974 36.622C151.302 36.958 150.504 37.126 149.58 37.126ZM165.481 31.798C165.481 32.158 165.457 32.482 165.409 32.77H158.119C158.179 33.49 158.431 34.054 158.875 34.462C159.319 34.87 159.865 35.074 160.513 35.074C161.449 35.074 162.115 34.672 162.511 33.868H165.229C164.941 34.828 164.389 35.62 163.573 36.244C162.757 36.856 161.755 37.162 160.567 37.162C159.607 37.162 158.743 36.952 157.975 36.532C157.219 36.1 156.625 35.494 156.193 34.714C155.773 33.934 155.563 33.034 155.563 32.014C155.563 30.982 155.773 30.076 156.193 29.296C156.613 28.516 157.201 27.916 157.957 27.496C158.713 27.076 159.583 26.866 160.567 26.866C161.515 26.866 162.361 27.07 163.105 27.478C163.861 27.886 164.443 28.468 164.851 29.224C165.271 29.968 165.481 30.826 165.481 31.798ZM162.871 31.078C162.859 30.43 162.625 29.914 162.169 29.53C161.713 29.134 161.155 28.936 160.495 28.936C159.871 28.936 159.343 29.128 158.911 29.512C158.491 29.884 158.233 30.406 158.137 31.078H162.871ZM172.846 26.884C174.034 26.884 174.994 27.262 175.726 28.018C176.458 28.762 176.824 29.806 176.824 31.15V37H174.304V31.492C174.304 30.7 174.106 30.094 173.71 29.674C173.314 29.242 172.774 29.026 172.09 29.026C171.394 29.026 170.842 29.242 170.434 29.674C170.038 30.094 169.84 30.7 169.84 31.492V37H167.32V27.028H169.84V28.27C170.176 27.838 170.602 27.502 171.118 27.262C171.646 27.01 172.222 26.884 172.846 26.884ZM178.573 31.978C178.573 30.97 178.771 30.076 179.167 29.296C179.575 28.516 180.127 27.916 180.823 27.496C181.519 27.076 182.293 26.866 183.145 26.866C183.793 26.866 184.411 27.01 184.999 27.298C185.587 27.574 186.055 27.946 186.403 28.414V23.68H188.959V37H186.403V35.524C186.091 36.016 185.653 36.412 185.089 36.712C184.525 37.012 183.871 37.162 183.127 37.162C182.287 37.162 181.519 36.946 180.823 36.514C180.127 36.082 179.575 35.476 179.167 34.696C178.771 33.904 178.573 32.998 178.573 31.978ZM186.421 32.014C186.421 31.402 186.301 30.88 186.061 30.448C185.821 30.004 185.497 29.668 185.089 29.44C184.681 29.2 184.243 29.08 183.775 29.08C183.307 29.08 182.875 29.194 182.479 29.422C182.083 29.65 181.759 29.986 181.507 30.43C181.267 30.862 181.147 31.378 181.147 31.978C181.147 32.578 181.267 33.106 181.507 33.562C181.759 34.006 182.083 34.348 182.479 34.588C182.887 34.828 183.319 34.948 183.775 34.948C184.243 34.948 184.681 34.834 185.089 34.606C185.497 34.366 185.821 34.03 186.061 33.598C186.301 33.154 186.421 32.626 186.421 32.014ZM204.259 24.436V26.47H200.911V37H198.391V26.47H195.043V24.436H204.259ZM210.525 37.162C209.565 37.162 208.701 36.952 207.933 36.532C207.165 36.1 206.559 35.494 206.115 34.714C205.683 33.934 205.467 33.034 205.467 32.014C205.467 30.994 205.689 30.094 206.133 29.314C206.589 28.534 207.207 27.934 207.987 27.514C208.767 27.082 209.637 26.866 210.597 26.866C211.557 26.866 212.427 27.082 213.207 27.514C213.987 27.934 214.599 28.534 215.043 29.314C215.499 30.094 215.727 30.994 215.727 32.014C215.727 33.034 215.493 33.934 215.025 34.714C214.569 35.494 213.945 36.1 213.153 36.532C212.373 36.952 211.497 37.162 210.525 37.162ZM210.525 34.966C210.981 34.966 211.407 34.858 211.803 34.642C212.211 34.414 212.535 34.078 212.775 33.634C213.015 33.19 213.135 32.65 213.135 32.014C213.135 31.066 212.883 30.34 212.379 29.836C211.887 29.32 211.281 29.062 210.561 29.062C209.841 29.062 209.235 29.32 208.743 29.836C208.263 30.34 208.023 31.066 208.023 32.014C208.023 32.962 208.257 33.694 208.725 34.21C209.205 34.714 209.805 34.966 210.525 34.966ZM232.611 37H230.091L224.385 28.378V37H221.865V24.418H224.385L230.091 33.058V24.418H232.611V37ZM234.453 31.978C234.453 30.97 234.651 30.076 235.047 29.296C235.455 28.516 236.001 27.916 236.685 27.496C237.381 27.076 238.155 26.866 239.007 26.866C239.751 26.866 240.399 27.016 240.951 27.316C241.515 27.616 241.965 27.994 242.301 28.45V27.028H244.839V37H242.301V35.542C241.977 36.01 241.527 36.4 240.951 36.712C240.387 37.012 239.733 37.162 238.989 37.162C238.149 37.162 237.381 36.946 236.685 36.514C236.001 36.082 235.455 35.476 235.047 34.696C234.651 33.904 234.453 32.998 234.453 31.978ZM242.301 32.014C242.301 31.402 242.181 30.88 241.941 30.448C241.701 30.004 241.377 29.668 240.969 29.44C240.561 29.2 240.123 29.08 239.655 29.08C239.187 29.08 238.755 29.194 238.359 29.422C237.963 29.65 237.639 29.986 237.387 30.43C237.147 30.862 237.027 31.378 237.027 31.978C237.027 32.578 237.147 33.106 237.387 33.562C237.639 34.006 237.963 34.348 238.359 34.588C238.767 34.828 239.199 34.948 239.655 34.948C240.123 34.948 240.561 34.834 240.969 34.606C241.377 34.366 241.701 34.03 241.941 33.598C242.181 33.154 242.301 32.626 242.301 32.014ZM259.685 26.884C260.909 26.884 261.893 27.262 262.637 28.018C263.393 28.762 263.771 29.806 263.771 31.15V37H261.251V31.492C261.251 30.712 261.053 30.118 260.657 29.71C260.261 29.29 259.721 29.08 259.037 29.08C258.353 29.08 257.807 29.29 257.399 29.71C257.003 30.118 256.805 30.712 256.805 31.492V37H254.285V31.492C254.285 30.712 254.087 30.118 253.691 29.71C253.295 29.29 252.755 29.08 252.071 29.08C251.375 29.08 250.823 29.29 250.415 29.71C250.019 30.118 249.821 30.712 249.821 31.492V37H247.301V27.028H249.821V28.234C250.145 27.814 250.559 27.484 251.063 27.244C251.579 27.004 252.143 26.884 252.755 26.884C253.535 26.884 254.231 27.052 254.843 27.388C255.455 27.712 255.929 28.18 256.265 28.792C256.589 28.216 257.057 27.754 257.669 27.406C258.293 27.058 258.965 26.884 259.685 26.884ZM275.432 31.798C275.432 32.158 275.408 32.482 275.36 32.77H268.07C268.13 33.49 268.382 34.054 268.826 34.462C269.27 34.87 269.816 35.074 270.464 35.074C271.4 35.074 272.066 34.672 272.462 33.868H275.18C274.892 34.828 274.34 35.62 273.524 36.244C272.708 36.856 271.706 37.162 270.518 37.162C269.558 37.162 268.694 36.952 267.926 36.532C267.17 36.1 266.576 35.494 266.144 34.714C265.724 33.934 265.514 33.034 265.514 32.014C265.514 30.982 265.724 30.076 266.144 29.296C266.564 28.516 267.152 27.916 267.908 27.496C268.664 27.076 269.534 26.866 270.518 26.866C271.466 26.866 272.312 27.07 273.056 27.478C273.812 27.886 274.394 28.468 274.802 29.224C275.222 29.968 275.432 30.826 275.432 31.798ZM272.822 31.078C272.81 30.43 272.576 29.914 272.12 29.53C271.664 29.134 271.106 28.936 270.446 28.936C269.822 28.936 269.294 29.128 268.862 29.512C268.442 29.884 268.184 30.406 268.088 31.078H272.822Z" fill="#6C63FF"/>
<rect x="439.5" y="0.5" width="414" height="59" rx="9.5" fill="white" stroke="#ACBEE8"/>
<path d="M588.58 37.126C587.704 37.126 586.912 36.976 586.204 36.676C585.508 36.376 584.956 35.944 584.548 35.38C584.14 34.816 583.93 34.15 583.918 33.382H586.618C586.654 33.898 586.834 34.306 587.158 34.606C587.494 34.906 587.95 35.056 588.526 35.056C589.114 35.056 589.576 34.918 589.912 34.642C590.248 34.354 590.416 33.982 590.416 33.526C590.416 33.154 590.302 32.848 590.074 32.608C589.846 32.368 589.558 32.182 589.21 32.05C588.874 31.906 588.406 31.75 587.806 31.582C586.99 31.342 586.324 31.108 585.808 30.88C585.304 30.64 584.866 30.286 584.494 29.818C584.134 29.338 583.954 28.702 583.954 27.91C583.954 27.166 584.14 26.518 584.512 25.966C584.884 25.414 585.406 24.994 586.078 24.706C586.75 24.406 587.518 24.256 588.382 24.256C589.678 24.256 590.728 24.574 591.532 25.21C592.348 25.834 592.798 26.71 592.882 27.838H590.11C590.086 27.406 589.9 27.052 589.552 26.776C589.216 26.488 588.766 26.344 588.202 26.344C587.71 26.344 587.314 26.47 587.014 26.722C586.726 26.974 586.582 27.34 586.582 27.82C586.582 28.156 586.69 28.438 586.906 28.666C587.134 28.882 587.41 29.062 587.734 29.206C588.07 29.338 588.538 29.494 589.138 29.674C589.954 29.914 590.62 30.154 591.136 30.394C591.652 30.634 592.096 30.994 592.468 31.474C592.84 31.954 593.026 32.584 593.026 33.364C593.026 34.036 592.852 34.66 592.504 35.236C592.156 35.812 591.646 36.274 590.974 36.622C590.302 36.958 589.504 37.126 588.58 37.126ZM604.481 31.798C604.481 32.158 604.457 32.482 604.409 32.77H597.119C597.179 33.49 597.431 34.054 597.875 34.462C598.319 34.87 598.865 35.074 599.513 35.074C600.449 35.074 601.115 34.672 601.511 33.868H604.229C603.941 34.828 603.389 35.62 602.573 36.244C601.757 36.856 600.755 37.162 599.567 37.162C598.607 37.162 597.743 36.952 596.975 36.532C596.219 36.1 595.625 35.494 595.193 34.714C594.773 33.934 594.563 33.034 594.563 32.014C594.563 30.982 594.773 30.076 595.193 29.296C595.613 28.516 596.201 27.916 596.957 27.496C597.713 27.076 598.583 26.866 599.567 26.866C600.515 26.866 601.361 27.07 602.105 27.478C602.861 27.886 603.443 28.468 603.851 29.224C604.271 29.968 604.481 30.826 604.481 31.798ZM601.871 31.078C601.859 30.43 601.625 29.914 601.169 29.53C600.713 29.134 600.155 28.936 599.495 28.936C598.871 28.936 598.343 29.128 597.911 29.512C597.491 29.884 597.233 30.406 597.137 31.078H601.871ZM611.846 26.884C613.034 26.884 613.994 27.262 614.726 28.018C615.458 28.762 615.824 29.806 615.824 31.15V37H613.304V31.492C613.304 30.7 613.106 30.094 612.71 29.674C612.314 29.242 611.774 29.026 611.09 29.026C610.394 29.026 609.842 29.242 609.434 29.674C609.038 30.094 608.84 30.7 608.84 31.492V37H606.32V27.028H608.84V28.27C609.176 27.838 609.602 27.502 610.118 27.262C610.646 27.01 611.222 26.884 611.846 26.884ZM617.573 31.978C617.573 30.97 617.771 30.076 618.167 29.296C618.575 28.516 619.127 27.916 619.823 27.496C620.519 27.076 621.293 26.866 622.145 26.866C622.793 26.866 623.411 27.01 623.999 27.298C624.587 27.574 625.055 27.946 625.403 28.414V23.68H627.959V37H625.403V35.524C625.091 36.016 624.653 36.412 624.089 36.712C623.525 37.012 622.871 37.162 622.127 37.162C621.287 37.162 620.519 36.946 619.823 36.514C619.127 36.082 618.575 35.476 618.167 34.696C617.771 33.904 617.573 32.998 617.573 31.978ZM625.421 32.014C625.421 31.402 625.301 30.88 625.061 30.448C624.821 30.004 624.497 29.668 624.089 29.44C623.681 29.2 623.243 29.08 622.775 29.08C622.307 29.08 621.875 29.194 621.479 29.422C621.083 29.65 620.759 29.986 620.507 30.43C620.267 30.862 620.147 31.378 620.147 31.978C620.147 32.578 620.267 33.106 620.507 33.562C620.759 34.006 621.083 34.348 621.479 34.588C621.887 34.828 622.319 34.948 622.775 34.948C623.243 34.948 623.681 34.834 624.089 34.606C624.497 34.366 624.821 34.03 625.061 33.598C625.301 33.154 625.421 32.626 625.421 32.014ZM643.259 24.436V26.47H639.911V37H637.391V26.47H634.043V24.436H643.259ZM649.525 37.162C648.565 37.162 647.701 36.952 646.933 36.532C646.165 36.1 645.559 35.494 645.115 34.714C644.683 33.934 644.467 33.034 644.467 32.014C644.467 30.994 644.689 30.094 645.133 29.314C645.589 28.534 646.207 27.934 646.987 27.514C647.767 27.082 648.637 26.866 649.597 26.866C650.557 26.866 651.427 27.082 652.207 27.514C652.987 27.934 653.599 28.534 654.043 29.314C654.499 30.094 654.727 30.994 654.727 32.014C654.727 33.034 654.493 33.934 654.025 34.714C653.569 35.494 652.945 36.1 652.153 36.532C651.373 36.952 650.497 37.162 649.525 37.162ZM649.525 34.966C649.981 34.966 650.407 34.858 650.803 34.642C651.211 34.414 651.535 34.078 651.775 33.634C652.015 33.19 652.135 32.65 652.135 32.014C652.135 31.066 651.883 30.34 651.379 29.836C650.887 29.32 650.281 29.062 649.561 29.062C648.841 29.062 648.235 29.32 647.743 29.836C647.263 30.34 647.023 31.066 647.023 32.014C647.023 32.962 647.257 33.694 647.725 34.21C648.205 34.714 648.805 34.966 649.525 34.966ZM668.569 34.606H663.565L662.737 37H660.091L664.609 24.418H667.543L672.061 37H669.397L668.569 34.606ZM667.885 32.59L666.067 27.334L664.249 32.59H667.885ZM673.102 31.978C673.102 30.97 673.3 30.076 673.696 29.296C674.104 28.516 674.656 27.916 675.352 27.496C676.048 27.076 676.822 26.866 677.674 26.866C678.322 26.866 678.94 27.01 679.528 27.298C680.116 27.574 680.584 27.946 680.932 28.414V23.68H683.488V37H680.932V35.524C680.62 36.016 680.182 36.412 679.618 36.712C679.054 37.012 678.4 37.162 677.656 37.162C676.816 37.162 676.048 36.946 675.352 36.514C674.656 36.082 674.104 35.476 673.696 34.696C673.3 33.904 673.102 32.998 673.102 31.978ZM680.95 32.014C680.95 31.402 680.83 30.88 680.59 30.448C680.35 30.004 680.026 29.668 679.618 29.44C679.21 29.2 678.772 29.08 678.304 29.08C677.836 29.08 677.404 29.194 677.008 29.422C676.612 29.65 676.288 29.986 676.036 30.43C675.796 30.862 675.676 31.378 675.676 31.978C675.676 32.578 675.796 33.106 676.036 33.562C676.288 34.006 676.612 34.348 677.008 34.588C677.416 34.828 677.848 34.948 678.304 34.948C678.772 34.948 679.21 34.834 679.618 34.606C680.026 34.366 680.35 34.03 680.59 33.598C680.83 33.154 680.95 32.626 680.95 32.014ZM685.301 31.978C685.301 30.97 685.499 30.076 685.895 29.296C686.303 28.516 686.855 27.916 687.551 27.496C688.247 27.076 689.021 26.866 689.873 26.866C690.521 26.866 691.139 27.01 691.727 27.298C692.315 27.574 692.783 27.946 693.131 28.414V23.68H695.687V37H693.131V35.524C692.819 36.016 692.381 36.412 691.817 36.712C691.253 37.012 690.599 37.162 689.855 37.162C689.015 37.162 688.247 36.946 687.551 36.514C686.855 36.082 686.303 35.476 685.895 34.696C685.499 33.904 685.301 32.998 685.301 31.978ZM693.149 32.014C693.149 31.402 693.029 30.88 692.789 30.448C692.549 30.004 692.225 29.668 691.817 29.44C691.409 29.2 690.971 29.08 690.503 29.08C690.035 29.08 689.603 29.194 689.207 29.422C688.811 29.65 688.487 29.986 688.235 30.43C687.995 30.862 687.875 31.378 687.875 31.978C687.875 32.578 687.995 33.106 688.235 33.562C688.487 34.006 688.811 34.348 689.207 34.588C689.615 34.828 690.047 34.948 690.503 34.948C690.971 34.948 691.409 34.834 691.817 34.606C692.225 34.366 692.549 34.03 692.789 33.598C693.029 33.154 693.149 32.626 693.149 32.014ZM700.668 28.576C700.992 28.048 701.412 27.634 701.928 27.334C702.456 27.034 703.056 26.884 703.728 26.884V29.53H703.062C702.27 29.53 701.67 29.716 701.262 30.088C700.866 30.46 700.668 31.108 700.668 32.032V37H698.148V27.028H700.668V28.576ZM714.696 31.798C714.696 32.158 714.672 32.482 714.624 32.77H707.334C707.394 33.49 707.646 34.054 708.09 34.462C708.534 34.87 709.08 35.074 709.728 35.074C710.664 35.074 711.33 34.672 711.726 33.868H714.444C714.156 34.828 713.604 35.62 712.788 36.244C711.972 36.856 710.97 37.162 709.782 37.162C708.822 37.162 707.958 36.952 707.19 36.532C706.434 36.1 705.84 35.494 705.408 34.714C704.988 33.934 704.778 33.034 704.778 32.014C704.778 30.982 704.988 30.076 705.408 29.296C705.828 28.516 706.416 27.916 707.172 27.496C707.928 27.076 708.798 26.866 709.782 26.866C710.73 26.866 711.576 27.07 712.32 27.478C713.076 27.886 713.658 28.468 714.066 29.224C714.486 29.968 714.696 30.826 714.696 31.798ZM712.086 31.078C712.074 30.43 711.84 29.914 711.384 29.53C710.928 29.134 710.37 28.936 709.71 28.936C709.086 28.936 708.558 29.128 708.126 29.512C707.706 29.884 707.448 30.406 707.352 31.078H712.086ZM720.351 37.162C719.535 37.162 718.803 37.018 718.155 36.73C717.507 36.43 716.991 36.028 716.607 35.524C716.235 35.02 716.031 34.462 715.995 33.85H718.533C718.581 34.234 718.767 34.552 719.091 34.804C719.427 35.056 719.841 35.182 720.333 35.182C720.813 35.182 721.185 35.086 721.449 34.894C721.725 34.702 721.863 34.456 721.863 34.156C721.863 33.832 721.695 33.592 721.359 33.436C721.035 33.268 720.513 33.088 719.793 32.896C719.049 32.716 718.437 32.53 717.957 32.338C717.489 32.146 717.081 31.852 716.733 31.456C716.397 31.06 716.229 30.526 716.229 29.854C716.229 29.302 716.385 28.798 716.697 28.342C717.021 27.886 717.477 27.526 718.065 27.262C718.665 26.998 719.367 26.866 720.171 26.866C721.359 26.866 722.307 27.166 723.015 27.766C723.723 28.354 724.113 29.152 724.185 30.16H721.773C721.737 29.764 721.569 29.452 721.269 29.224C720.981 28.984 720.591 28.864 720.099 28.864C719.643 28.864 719.289 28.948 719.037 29.116C718.797 29.284 718.677 29.518 718.677 29.818C718.677 30.154 718.845 30.412 719.181 30.592C719.517 30.76 720.039 30.934 720.747 31.114C721.467 31.294 722.061 31.48 722.529 31.672C722.997 31.864 723.399 32.164 723.735 32.572C724.083 32.968 724.263 33.496 724.275 34.156C724.275 34.732 724.113 35.248 723.789 35.704C723.477 36.16 723.021 36.52 722.421 36.784C721.833 37.036 721.143 37.162 720.351 37.162ZM730.16 37.162C729.344 37.162 728.612 37.018 727.964 36.73C727.316 36.43 726.8 36.028 726.416 35.524C726.044 35.02 725.84 34.462 725.804 33.85H728.342C728.39 34.234 728.576 34.552 728.9 34.804C729.236 35.056 729.65 35.182 730.142 35.182C730.622 35.182 730.994 35.086 731.258 34.894C731.534 34.702 731.672 34.456 731.672 34.156C731.672 33.832 731.504 33.592 731.168 33.436C730.844 33.268 730.322 33.088 729.602 32.896C728.858 32.716 728.246 32.53 727.766 32.338C727.298 32.146 726.89 31.852 726.542 31.456C726.206 31.06 726.038 30.526 726.038 29.854C726.038 29.302 726.194 28.798 726.506 28.342C726.83 27.886 727.286 27.526 727.874 27.262C728.474 26.998 729.176 26.866 729.98 26.866C731.168 26.866 732.116 27.166 732.824 27.766C733.532 28.354 733.922 29.152 733.994 30.16H731.582C731.546 29.764 731.378 29.452 731.078 29.224C730.79 28.984 730.4 28.864 729.908 28.864C729.452 28.864 729.098 28.948 728.846 29.116C728.606 29.284 728.486 29.518 728.486 29.818C728.486 30.154 728.654 30.412 728.99 30.592C729.326 30.76 729.848 30.934 730.556 31.114C731.276 31.294 731.87 31.48 732.338 31.672C732.806 31.864 733.208 32.164 733.544 32.572C733.892 32.968 734.072 33.496 734.084 34.156C734.084 34.732 733.922 35.248 733.598 35.704C733.286 36.16 732.83 36.52 732.23 36.784C731.642 37.036 730.952 37.162 730.16 37.162Z" fill="#6C63FF"/>
<rect x="0.5" y="85.5" width="414" height="59" rx="9.5" fill="white" stroke="#ACBEE8"/>
<path d="M149.58 122.126C148.704 122.126 147.912 121.976 147.204 121.676C146.508 121.376 145.956 120.944 145.548 120.38C145.14 119.816 144.93 119.15 144.918 118.382H147.618C147.654 118.898 147.834 119.306 148.158 119.606C148.494 119.906 148.95 120.056 149.526 120.056C150.114 120.056 150.576 119.918 150.912 119.642C151.248 119.354 151.416 118.982 151.416 118.526C151.416 118.154 151.302 117.848 151.074 117.608C150.846 117.368 150.558 117.182 150.21 117.05C149.874 116.906 149.406 116.75 148.806 116.582C147.99 116.342 147.324 116.108 146.808 115.88C146.304 115.64 145.866 115.286 145.494 114.818C145.134 114.338 144.954 113.702 144.954 112.91C144.954 112.166 145.14 111.518 145.512 110.966C145.884 110.414 146.406 109.994 147.078 109.706C147.75 109.406 148.518 109.256 149.382 109.256C150.678 109.256 151.728 109.574 152.532 110.21C153.348 110.834 153.798 111.71 153.882 112.838H151.11C151.086 112.406 150.9 112.052 150.552 111.776C150.216 111.488 149.766 111.344 149.202 111.344C148.71 111.344 148.314 111.47 148.014 111.722C147.726 111.974 147.582 112.34 147.582 112.82C147.582 113.156 147.69 113.438 147.906 113.666C148.134 113.882 148.41 114.062 148.734 114.206C149.07 114.338 149.538 114.494 150.138 114.674C150.954 114.914 151.62 115.154 152.136 115.394C152.652 115.634 153.096 115.994 153.468 116.474C153.84 116.954 154.026 117.584 154.026 118.364C154.026 119.036 153.852 119.66 153.504 120.236C153.156 120.812 152.646 121.274 151.974 121.622C151.302 121.958 150.504 122.126 149.58 122.126ZM165.481 116.798C165.481 117.158 165.457 117.482 165.409 117.77H158.119C158.179 118.49 158.431 119.054 158.875 119.462C159.319 119.87 159.865 120.074 160.513 120.074C161.449 120.074 162.115 119.672 162.511 118.868H165.229C164.941 119.828 164.389 120.62 163.573 121.244C162.757 121.856 161.755 122.162 160.567 122.162C159.607 122.162 158.743 121.952 157.975 121.532C157.219 121.1 156.625 120.494 156.193 119.714C155.773 118.934 155.563 118.034 155.563 117.014C155.563 115.982 155.773 115.076 156.193 114.296C156.613 113.516 157.201 112.916 157.957 112.496C158.713 112.076 159.583 111.866 160.567 111.866C161.515 111.866 162.361 112.07 163.105 112.478C163.861 112.886 164.443 113.468 164.851 114.224C165.271 114.968 165.481 115.826 165.481 116.798ZM162.871 116.078C162.859 115.43 162.625 114.914 162.169 114.53C161.713 114.134 161.155 113.936 160.495 113.936C159.871 113.936 159.343 114.128 158.911 114.512C158.491 114.884 158.233 115.406 158.137 116.078H162.871ZM172.846 111.884C174.034 111.884 174.994 112.262 175.726 113.018C176.458 113.762 176.824 114.806 176.824 116.15V122H174.304V116.492C174.304 115.7 174.106 115.094 173.71 114.674C173.314 114.242 172.774 114.026 172.09 114.026C171.394 114.026 170.842 114.242 170.434 114.674C170.038 115.094 169.84 115.7 169.84 116.492V122H167.32V112.028H169.84V113.27C170.176 112.838 170.602 112.502 171.118 112.262C171.646 112.01 172.222 111.884 172.846 111.884ZM178.573 116.978C178.573 115.97 178.771 115.076 179.167 114.296C179.575 113.516 180.127 112.916 180.823 112.496C181.519 112.076 182.293 111.866 183.145 111.866C183.793 111.866 184.411 112.01 184.999 112.298C185.587 112.574 186.055 112.946 186.403 113.414V108.68H188.959V122H186.403V120.524C186.091 121.016 185.653 121.412 185.089 121.712C184.525 122.012 183.871 122.162 183.127 122.162C182.287 122.162 181.519 121.946 180.823 121.514C180.127 121.082 179.575 120.476 179.167 119.696C178.771 118.904 178.573 117.998 178.573 116.978ZM186.421 117.014C186.421 116.402 186.301 115.88 186.061 115.448C185.821 115.004 185.497 114.668 185.089 114.44C184.681 114.2 184.243 114.08 183.775 114.08C183.307 114.08 182.875 114.194 182.479 114.422C182.083 114.65 181.759 114.986 181.507 115.43C181.267 115.862 181.147 116.378 181.147 116.978C181.147 117.578 181.267 118.106 181.507 118.562C181.759 119.006 182.083 119.348 182.479 119.588C182.887 119.828 183.319 119.948 183.775 119.948C184.243 119.948 184.681 119.834 185.089 119.606C185.497 119.366 185.821 119.03 186.061 118.598C186.301 118.154 186.421 117.626 186.421 117.014ZM204.259 109.436V111.47H200.911V122H198.391V111.47H195.043V109.436H204.259ZM210.525 122.162C209.565 122.162 208.701 121.952 207.933 121.532C207.165 121.1 206.559 120.494 206.115 119.714C205.683 118.934 205.467 118.034 205.467 117.014C205.467 115.994 205.689 115.094 206.133 114.314C206.589 113.534 207.207 112.934 207.987 112.514C208.767 112.082 209.637 111.866 210.597 111.866C211.557 111.866 212.427 112.082 213.207 112.514C213.987 112.934 214.599 113.534 215.043 114.314C215.499 115.094 215.727 115.994 215.727 117.014C215.727 118.034 215.493 118.934 215.025 119.714C214.569 120.494 213.945 121.1 213.153 121.532C212.373 121.952 211.497 122.162 210.525 122.162ZM210.525 119.966C210.981 119.966 211.407 119.858 211.803 119.642C212.211 119.414 212.535 119.078 212.775 118.634C213.015 118.19 213.135 117.65 213.135 117.014C213.135 116.066 212.883 115.34 212.379 114.836C211.887 114.32 211.281 114.062 210.561 114.062C209.841 114.062 209.235 114.32 208.743 114.836C208.263 115.34 208.023 116.066 208.023 117.014C208.023 117.962 208.257 118.694 208.725 119.21C209.205 119.714 209.805 119.966 210.525 119.966ZM221.253 115.7C221.253 114.464 221.529 113.36 222.081 112.388C222.645 111.404 223.407 110.642 224.367 110.102C225.339 109.55 226.425 109.274 227.625 109.274C229.029 109.274 230.259 109.634 231.315 110.354C232.371 111.074 233.109 112.07 233.529 113.342H230.631C230.343 112.742 229.935 112.292 229.407 111.992C228.891 111.692 228.291 111.542 227.607 111.542C226.875 111.542 226.221 111.716 225.645 112.064C225.081 112.4 224.637 112.88 224.313 113.504C224.001 114.128 223.845 114.86 223.845 115.7C223.845 116.528 224.001 117.26 224.313 117.896C224.637 118.52 225.081 119.006 225.645 119.354C226.221 119.69 226.875 119.858 227.607 119.858C228.291 119.858 228.891 119.708 229.407 119.408C229.935 119.096 230.343 118.64 230.631 118.04H233.529C233.109 119.324 232.371 120.326 231.315 121.046C230.271 121.754 229.041 122.108 227.625 122.108C226.425 122.108 225.339 121.838 224.367 121.298C223.407 120.746 222.645 119.984 222.081 119.012C221.529 118.04 221.253 116.936 221.253 115.7ZM236.959 110.84C236.515 110.84 236.143 110.702 235.843 110.426C235.555 110.138 235.411 109.784 235.411 109.364C235.411 108.944 235.555 108.596 235.843 108.32C236.143 108.032 236.515 107.888 236.959 107.888C237.403 107.888 237.769 108.032 238.057 108.32C238.357 108.596 238.507 108.944 238.507 109.364C238.507 109.784 238.357 110.138 238.057 110.426C237.769 110.702 237.403 110.84 236.959 110.84ZM238.201 112.028V122H235.681V112.028H238.201ZM243.625 114.098V118.922C243.625 119.258 243.703 119.504 243.859 119.66C244.027 119.804 244.303 119.876 244.687 119.876H245.857V122H244.273C242.149 122 241.087 120.968 241.087 118.904V114.098H239.899V112.028H241.087V109.562H243.625V112.028H245.857V114.098H243.625ZM257.21 112.028L251.036 126.716H248.354L250.514 121.748L246.518 112.028H249.344L251.918 118.994L254.528 112.028H257.21Z" fill="#6C63FF"/>
<rect x="439.5" y="85.5" width="414" height="59" rx="9.5" fill="white" stroke="#ACBEE8"/>
<path d="M588.58 122.126C587.704 122.126 586.912 121.976 586.204 121.676C585.508 121.376 584.956 120.944 584.548 120.38C584.14 119.816 583.93 119.15 583.918 118.382H586.618C586.654 118.898 586.834 119.306 587.158 119.606C587.494 119.906 587.95 120.056 588.526 120.056C589.114 120.056 589.576 119.918 589.912 119.642C590.248 119.354 590.416 118.982 590.416 118.526C590.416 118.154 590.302 117.848 590.074 117.608C589.846 117.368 589.558 117.182 589.21 117.05C588.874 116.906 588.406 116.75 587.806 116.582C586.99 116.342 586.324 116.108 585.808 115.88C585.304 115.64 584.866 115.286 584.494 114.818C584.134 114.338 583.954 113.702 583.954 112.91C583.954 112.166 584.14 111.518 584.512 110.966C584.884 110.414 585.406 109.994 586.078 109.706C586.75 109.406 587.518 109.256 588.382 109.256C589.678 109.256 590.728 109.574 591.532 110.21C592.348 110.834 592.798 111.71 592.882 112.838H590.11C590.086 112.406 589.9 112.052 589.552 111.776C589.216 111.488 588.766 111.344 588.202 111.344C587.71 111.344 587.314 111.47 587.014 111.722C586.726 111.974 586.582 112.34 586.582 112.82C586.582 113.156 586.69 113.438 586.906 113.666C587.134 113.882 587.41 114.062 587.734 114.206C588.07 114.338 588.538 114.494 589.138 114.674C589.954 114.914 590.62 115.154 591.136 115.394C591.652 115.634 592.096 115.994 592.468 116.474C592.84 116.954 593.026 117.584 593.026 118.364C593.026 119.036 592.852 119.66 592.504 120.236C592.156 120.812 591.646 121.274 590.974 121.622C590.302 121.958 589.504 122.126 588.58 122.126ZM604.481 116.798C604.481 117.158 604.457 117.482 604.409 117.77H597.119C597.179 118.49 597.431 119.054 597.875 119.462C598.319 119.87 598.865 120.074 599.513 120.074C600.449 120.074 601.115 119.672 601.511 118.868H604.229C603.941 119.828 603.389 120.62 602.573 121.244C601.757 121.856 600.755 122.162 599.567 122.162C598.607 122.162 597.743 121.952 596.975 121.532C596.219 121.1 595.625 120.494 595.193 119.714C594.773 118.934 594.563 118.034 594.563 117.014C594.563 115.982 594.773 115.076 595.193 114.296C595.613 113.516 596.201 112.916 596.957 112.496C597.713 112.076 598.583 111.866 599.567 111.866C600.515 111.866 601.361 112.07 602.105 112.478C602.861 112.886 603.443 113.468 603.851 114.224C604.271 114.968 604.481 115.826 604.481 116.798ZM601.871 116.078C601.859 115.43 601.625 114.914 601.169 114.53C600.713 114.134 600.155 113.936 599.495 113.936C598.871 113.936 598.343 114.128 597.911 114.512C597.491 114.884 597.233 115.406 597.137 116.078H601.871ZM611.846 111.884C613.034 111.884 613.994 112.262 614.726 113.018C615.458 113.762 615.824 114.806 615.824 116.15V122H613.304V116.492C613.304 115.7 613.106 115.094 612.71 114.674C612.314 114.242 611.774 114.026 611.09 114.026C610.394 114.026 609.842 114.242 609.434 114.674C609.038 115.094 608.84 115.7 608.84 116.492V122H606.32V112.028H608.84V113.27C609.176 112.838 609.602 112.502 610.118 112.262C610.646 112.01 611.222 111.884 611.846 111.884ZM617.573 116.978C617.573 115.97 617.771 115.076 618.167 114.296C618.575 113.516 619.127 112.916 619.823 112.496C620.519 112.076 621.293 111.866 622.145 111.866C622.793 111.866 623.411 112.01 623.999 112.298C624.587 112.574 625.055 112.946 625.403 113.414V108.68H627.959V122H625.403V120.524C625.091 121.016 624.653 121.412 624.089 121.712C623.525 122.012 622.871 122.162 622.127 122.162C621.287 122.162 620.519 121.946 619.823 121.514C619.127 121.082 618.575 120.476 618.167 119.696C617.771 118.904 617.573 117.998 617.573 116.978ZM625.421 117.014C625.421 116.402 625.301 115.88 625.061 115.448C624.821 115.004 624.497 114.668 624.089 114.44C623.681 114.2 623.243 114.08 622.775 114.08C622.307 114.08 621.875 114.194 621.479 114.422C621.083 114.65 620.759 114.986 620.507 115.43C620.267 115.862 620.147 116.378 620.147 116.978C620.147 117.578 620.267 118.106 620.507 118.562C620.759 119.006 621.083 119.348 621.479 119.588C621.887 119.828 622.319 119.948 622.775 119.948C623.243 119.948 623.681 119.834 624.089 119.606C624.497 119.366 624.821 119.03 625.061 118.598C625.301 118.154 625.421 117.626 625.421 117.014ZM643.259 109.436V111.47H639.911V122H637.391V111.47H634.043V109.436H643.259ZM649.525 122.162C648.565 122.162 647.701 121.952 646.933 121.532C646.165 121.1 645.559 120.494 645.115 119.714C644.683 118.934 644.467 118.034 644.467 117.014C644.467 115.994 644.689 115.094 645.133 114.314C645.589 113.534 646.207 112.934 646.987 112.514C647.767 112.082 648.637 111.866 649.597 111.866C650.557 111.866 651.427 112.082 652.207 112.514C652.987 112.934 653.599 113.534 654.043 114.314C654.499 115.094 654.727 115.994 654.727 117.014C654.727 118.034 654.493 118.934 654.025 119.714C653.569 120.494 652.945 121.1 652.153 121.532C651.373 121.952 650.497 122.162 649.525 122.162ZM649.525 119.966C649.981 119.966 650.407 119.858 650.803 119.642C651.211 119.414 651.535 119.078 651.775 118.634C652.015 118.19 652.135 117.65 652.135 117.014C652.135 116.066 651.883 115.34 651.379 114.836C650.887 114.32 650.281 114.062 649.561 114.062C648.841 114.062 648.235 114.32 647.743 114.836C647.263 115.34 647.023 116.066 647.023 117.014C647.023 117.962 647.257 118.694 647.725 119.21C648.205 119.714 648.805 119.966 649.525 119.966ZM665.203 122.126C664.327 122.126 663.535 121.976 662.827 121.676C662.131 121.376 661.579 120.944 661.171 120.38C660.763 119.816 660.553 119.15 660.541 118.382H663.241C663.277 118.898 663.457 119.306 663.781 119.606C664.117 119.906 664.573 120.056 665.149 120.056C665.737 120.056 666.199 119.918 666.535 119.642C666.871 119.354 667.039 118.982 667.039 118.526C667.039 118.154 666.925 117.848 666.697 117.608C666.469 117.368 666.181 117.182 665.833 117.05C665.497 116.906 665.029 116.75 664.429 116.582C663.613 116.342 662.947 116.108 662.431 115.88C661.927 115.64 661.489 115.286 661.117 114.818C660.757 114.338 660.577 113.702 660.577 112.91C660.577 112.166 660.763 111.518 661.135 110.966C661.507 110.414 662.029 109.994 662.701 109.706C663.373 109.406 664.141 109.256 665.005 109.256C666.301 109.256 667.351 109.574 668.155 110.21C668.971 110.834 669.421 111.71 669.505 112.838H666.733C666.709 112.406 666.523 112.052 666.175 111.776C665.839 111.488 665.389 111.344 664.825 111.344C664.333 111.344 663.937 111.47 663.637 111.722C663.349 111.974 663.205 112.34 663.205 112.82C663.205 113.156 663.313 113.438 663.529 113.666C663.757 113.882 664.033 114.062 664.357 114.206C664.693 114.338 665.161 114.494 665.761 114.674C666.577 114.914 667.243 115.154 667.759 115.394C668.275 115.634 668.719 115.994 669.091 116.474C669.463 116.954 669.649 117.584 669.649 118.364C669.649 119.036 669.475 119.66 669.127 120.236C668.779 120.812 668.269 121.274 667.597 121.622C666.925 121.958 666.127 122.126 665.203 122.126ZM674.768 114.098V118.922C674.768 119.258 674.846 119.504 675.002 119.66C675.17 119.804 675.446 119.876 675.83 119.876H677V122H675.416C673.292 122 672.23 120.968 672.23 118.904V114.098H671.042V112.028H672.23V109.562H674.768V112.028H677V114.098H674.768ZM678.164 116.978C678.164 115.97 678.362 115.076 678.758 114.296C679.166 113.516 679.712 112.916 680.396 112.496C681.092 112.076 681.866 111.866 682.718 111.866C683.462 111.866 684.11 112.016 684.662 112.316C685.226 112.616 685.676 112.994 686.012 113.45V112.028H688.55V122H686.012V120.542C685.688 121.01 685.238 121.4 684.662 121.712C684.098 122.012 683.444 122.162 682.7 122.162C681.86 122.162 681.092 121.946 680.396 121.514C679.712 121.082 679.166 120.476 678.758 119.696C678.362 118.904 678.164 117.998 678.164 116.978ZM686.012 117.014C686.012 116.402 685.892 115.88 685.652 115.448C685.412 115.004 685.088 114.668 684.68 114.44C684.272 114.2 683.834 114.08 683.366 114.08C682.898 114.08 682.466 114.194 682.07 114.422C681.674 114.65 681.35 114.986 681.098 115.43C680.858 115.862 680.738 116.378 680.738 116.978C680.738 117.578 680.858 118.106 681.098 118.562C681.35 119.006 681.674 119.348 682.07 119.588C682.478 119.828 682.91 119.948 683.366 119.948C683.834 119.948 684.272 119.834 684.68 119.606C685.088 119.366 685.412 119.03 685.652 118.598C685.892 118.154 686.012 117.626 686.012 117.014ZM693.946 114.098V118.922C693.946 119.258 694.024 119.504 694.18 119.66C694.348 119.804 694.624 119.876 695.008 119.876H696.178V122H694.594C692.47 122 691.408 120.968 691.408 118.904V114.098H690.22V112.028H691.408V109.562H693.946V112.028H696.178V114.098H693.946ZM707.26 116.798C707.26 117.158 707.236 117.482 707.188 117.77H699.898C699.958 118.49 700.21 119.054 700.654 119.462C701.098 119.87 701.644 120.074 702.292 120.074C703.228 120.074 703.894 119.672 704.29 118.868H707.008C706.72 119.828 706.168 120.62 705.352 121.244C704.536 121.856 703.534 122.162 702.346 122.162C701.386 122.162 700.522 121.952 699.754 121.532C698.998 121.1 698.404 120.494 697.972 119.714C697.552 118.934 697.342 118.034 697.342 117.014C697.342 115.982 697.552 115.076 697.972 114.296C698.392 113.516 698.98 112.916 699.736 112.496C700.492 112.076 701.362 111.866 702.346 111.866C703.294 111.866 704.14 112.07 704.884 112.478C705.64 112.886 706.222 113.468 706.63 114.224C707.05 114.968 707.26 115.826 707.26 116.798ZM704.65 116.078C704.638 115.43 704.404 114.914 703.948 114.53C703.492 114.134 702.934 113.936 702.274 113.936C701.65 113.936 701.122 114.128 700.69 114.512C700.27 114.884 700.012 115.406 699.916 116.078H704.65Z" fill="#6C63FF"/>
<rect x="0.5" y="170.5" width="853" height="59" rx="9.5" fill="white" stroke="#ACBEE8"/>
<path d="M380.58 207.126C379.704 207.126 378.912 206.976 378.204 206.676C377.508 206.376 376.956 205.944 376.548 205.38C376.14 204.816 375.93 204.15 375.918 203.382H378.618C378.654 203.898 378.834 204.306 379.158 204.606C379.494 204.906 379.95 205.056 380.526 205.056C381.114 205.056 381.576 204.918 381.912 204.642C382.248 204.354 382.416 203.982 382.416 203.526C382.416 203.154 382.302 202.848 382.074 202.608C381.846 202.368 381.558 202.182 381.21 202.05C380.874 201.906 380.406 201.75 379.806 201.582C378.99 201.342 378.324 201.108 377.808 200.88C377.304 200.64 376.866 200.286 376.494 199.818C376.134 199.338 375.954 198.702 375.954 197.91C375.954 197.166 376.14 196.518 376.512 195.966C376.884 195.414 377.406 194.994 378.078 194.706C378.75 194.406 379.518 194.256 380.382 194.256C381.678 194.256 382.728 194.574 383.532 195.21C384.348 195.834 384.798 196.71 384.882 197.838H382.11C382.086 197.406 381.9 197.052 381.552 196.776C381.216 196.488 380.766 196.344 380.202 196.344C379.71 196.344 379.314 196.47 379.014 196.722C378.726 196.974 378.582 197.34 378.582 197.82C378.582 198.156 378.69 198.438 378.906 198.666C379.134 198.882 379.41 199.062 379.734 199.206C380.07 199.338 380.538 199.494 381.138 199.674C381.954 199.914 382.62 200.154 383.136 200.394C383.652 200.634 384.096 200.994 384.468 201.474C384.84 201.954 385.026 202.584 385.026 203.364C385.026 204.036 384.852 204.66 384.504 205.236C384.156 205.812 383.646 206.274 382.974 206.622C382.302 206.958 381.504 207.126 380.58 207.126ZM396.481 201.798C396.481 202.158 396.457 202.482 396.409 202.77H389.119C389.179 203.49 389.431 204.054 389.875 204.462C390.319 204.87 390.865 205.074 391.513 205.074C392.449 205.074 393.115 204.672 393.511 203.868H396.229C395.941 204.828 395.389 205.62 394.573 206.244C393.757 206.856 392.755 207.162 391.567 207.162C390.607 207.162 389.743 206.952 388.975 206.532C388.219 206.1 387.625 205.494 387.193 204.714C386.773 203.934 386.563 203.034 386.563 202.014C386.563 200.982 386.773 200.076 387.193 199.296C387.613 198.516 388.201 197.916 388.957 197.496C389.713 197.076 390.583 196.866 391.567 196.866C392.515 196.866 393.361 197.07 394.105 197.478C394.861 197.886 395.443 198.468 395.851 199.224C396.271 199.968 396.481 200.826 396.481 201.798ZM393.871 201.078C393.859 200.43 393.625 199.914 393.169 199.53C392.713 199.134 392.155 198.936 391.495 198.936C390.871 198.936 390.343 199.128 389.911 199.512C389.491 199.884 389.233 200.406 389.137 201.078H393.871ZM403.846 196.884C405.034 196.884 405.994 197.262 406.726 198.018C407.458 198.762 407.824 199.806 407.824 201.15V207H405.304V201.492C405.304 200.7 405.106 200.094 404.71 199.674C404.314 199.242 403.774 199.026 403.09 199.026C402.394 199.026 401.842 199.242 401.434 199.674C401.038 200.094 400.84 200.7 400.84 201.492V207H398.32V197.028H400.84V198.27C401.176 197.838 401.602 197.502 402.118 197.262C402.646 197.01 403.222 196.884 403.846 196.884ZM409.573 201.978C409.573 200.97 409.771 200.076 410.167 199.296C410.575 198.516 411.127 197.916 411.823 197.496C412.519 197.076 413.293 196.866 414.145 196.866C414.793 196.866 415.411 197.01 415.999 197.298C416.587 197.574 417.055 197.946 417.403 198.414V193.68H419.959V207H417.403V205.524C417.091 206.016 416.653 206.412 416.089 206.712C415.525 207.012 414.871 207.162 414.127 207.162C413.287 207.162 412.519 206.946 411.823 206.514C411.127 206.082 410.575 205.476 410.167 204.696C409.771 203.904 409.573 202.998 409.573 201.978ZM417.421 202.014C417.421 201.402 417.301 200.88 417.061 200.448C416.821 200.004 416.497 199.668 416.089 199.44C415.681 199.2 415.243 199.08 414.775 199.08C414.307 199.08 413.875 199.194 413.479 199.422C413.083 199.65 412.759 199.986 412.507 200.43C412.267 200.862 412.147 201.378 412.147 201.978C412.147 202.578 412.267 203.106 412.507 203.562C412.759 204.006 413.083 204.348 413.479 204.588C413.887 204.828 414.319 204.948 414.775 204.948C415.243 204.948 415.681 204.834 416.089 204.606C416.497 204.366 416.821 204.03 417.061 203.598C417.301 203.154 417.421 202.626 417.421 202.014ZM435.259 194.436V196.47H431.911V207H429.391V196.47H426.043V194.436H435.259ZM441.525 207.162C440.565 207.162 439.701 206.952 438.933 206.532C438.165 206.1 437.559 205.494 437.115 204.714C436.683 203.934 436.467 203.034 436.467 202.014C436.467 200.994 436.689 200.094 437.133 199.314C437.589 198.534 438.207 197.934 438.987 197.514C439.767 197.082 440.637 196.866 441.597 196.866C442.557 196.866 443.427 197.082 444.207 197.514C444.987 197.934 445.599 198.534 446.043 199.314C446.499 200.094 446.727 200.994 446.727 202.014C446.727 203.034 446.493 203.934 446.025 204.714C445.569 205.494 444.945 206.1 444.153 206.532C443.373 206.952 442.497 207.162 441.525 207.162ZM441.525 204.966C441.981 204.966 442.407 204.858 442.803 204.642C443.211 204.414 443.535 204.078 443.775 203.634C444.015 203.19 444.135 202.65 444.135 202.014C444.135 201.066 443.883 200.34 443.379 199.836C442.887 199.32 442.281 199.062 441.561 199.062C440.841 199.062 440.235 199.32 439.743 199.836C439.263 200.34 439.023 201.066 439.023 202.014C439.023 202.962 439.257 203.694 439.725 204.21C440.205 204.714 440.805 204.966 441.525 204.966ZM455.439 204.876H461.091V207H452.523V205.056L458.139 196.56H452.523V194.436H461.091V196.38L455.439 204.876ZM464.514 195.84C464.07 195.84 463.698 195.702 463.398 195.426C463.11 195.138 462.966 194.784 462.966 194.364C462.966 193.944 463.11 193.596 463.398 193.32C463.698 193.032 464.07 192.888 464.514 192.888C464.958 192.888 465.324 193.032 465.612 193.32C465.912 193.596 466.062 193.944 466.062 194.364C466.062 194.784 465.912 195.138 465.612 195.426C465.324 195.702 464.958 195.84 464.514 195.84ZM465.756 197.028V207H463.236V197.028H465.756ZM470.766 198.468C471.09 198.012 471.534 197.634 472.098 197.334C472.674 197.022 473.328 196.866 474.06 196.866C474.912 196.866 475.68 197.076 476.364 197.496C477.06 197.916 477.606 198.516 478.002 199.296C478.41 200.064 478.614 200.958 478.614 201.978C478.614 202.998 478.41 203.904 478.002 204.696C477.606 205.476 477.06 206.082 476.364 206.514C475.68 206.946 474.912 207.162 474.06 207.162C473.328 207.162 472.68 207.012 472.116 206.712C471.564 206.412 471.114 206.034 470.766 205.578V211.752H468.246V197.028H470.766V198.468ZM476.04 201.978C476.04 201.378 475.914 200.862 475.662 200.43C475.422 199.986 475.098 199.65 474.69 199.422C474.294 199.194 473.862 199.08 473.394 199.08C472.938 199.08 472.506 199.2 472.098 199.44C471.702 199.668 471.378 200.004 471.126 200.448C470.886 200.892 470.766 201.414 470.766 202.014C470.766 202.614 470.886 203.136 471.126 203.58C471.378 204.024 471.702 204.366 472.098 204.606C472.506 204.834 472.938 204.948 473.394 204.948C473.862 204.948 474.294 204.828 474.69 204.588C475.098 204.348 475.422 204.006 475.662 203.562C475.914 203.118 476.04 202.59 476.04 201.978Z" fill="#6C63FF"/>
</svg>
