<svg width="801" height="32" viewBox="0 0 801 32" fill="none" xmlns="http://www.w3.org/2000/svg">
<path d="M651.422 4.832C652.595 4.832 653.625 5.06133 654.51 5.52C655.406 5.97867 656.094 6.63467 656.574 7.488C657.065 8.33067 657.31 9.312 657.31 10.432C657.31 11.552 657.065 12.5333 656.574 13.376C656.094 14.208 655.406 14.8533 654.51 15.312C653.625 15.7707 652.595 16 651.422 16H647.518V4.832H651.422ZM651.342 14.096C652.515 14.096 653.422 13.776 654.062 13.136C654.702 12.496 655.022 11.5947 655.022 10.432C655.022 9.26933 654.702 8.36267 654.062 7.712C653.422 7.05067 652.515 6.72 651.342 6.72H649.758V14.096H651.342ZM664.171 16.112C663.125 16.112 662.165 15.8667 661.291 15.376C660.416 14.8853 659.723 14.208 659.211 13.344C658.699 12.4693 658.443 11.4827 658.443 10.384C658.443 9.296 658.699 8.32 659.211 7.456C659.723 6.58133 660.416 5.89867 661.291 5.408C662.165 4.91733 663.125 4.672 664.171 4.672C665.227 4.672 666.187 4.91733 667.051 5.408C667.925 5.89867 668.613 6.58133 669.115 7.456C669.627 8.32 669.883 9.296 669.883 10.384C669.883 11.4827 669.627 12.4693 669.115 13.344C668.613 14.208 667.925 14.8853 667.051 15.376C666.176 15.8667 665.216 16.112 664.171 16.112ZM664.171 14.112C664.843 14.112 665.435 13.9627 665.947 13.664C666.459 13.3547 666.859 12.9173 667.147 12.352C667.435 11.7867 667.579 11.1307 667.579 10.384C667.579 9.63733 667.435 8.98667 667.147 8.432C666.859 7.86667 666.459 7.43467 665.947 7.136C665.435 6.83733 664.843 6.688 664.171 6.688C663.499 6.688 662.901 6.83733 662.379 7.136C661.867 7.43467 661.467 7.86667 661.179 8.432C660.891 8.98667 660.747 9.63733 660.747 10.384C660.747 11.1307 660.891 11.7867 661.179 12.352C661.467 12.9173 661.867 13.3547 662.379 13.664C662.901 13.9627 663.499 14.112 664.171 14.112ZM673.789 14.224H677.469V16H671.549V4.832H673.789V14.224ZM681.133 14.224H684.813V16H678.893V4.832H681.133V14.224ZM693.085 13.872H688.637L687.901 16H685.549L689.565 4.816H692.173L696.189 16H693.821L693.085 13.872ZM692.477 12.08L690.861 7.408L689.245 12.08H692.477ZM703.45 16L700.986 11.648H699.93V16H697.69V4.832H701.882C702.746 4.832 703.482 4.98667 704.09 5.296C704.698 5.59467 705.151 6.00533 705.45 6.528C705.759 7.04 705.914 7.616 705.914 8.256C705.914 8.992 705.701 9.65867 705.274 10.256C704.847 10.8427 704.213 11.248 703.37 11.472L706.042 16H703.45ZM699.93 9.968H701.802C702.41 9.968 702.863 9.824 703.162 9.536C703.461 9.23733 703.61 8.82667 703.61 8.304C703.61 7.792 703.461 7.39733 703.162 7.12C702.863 6.832 702.41 6.688 701.802 6.688H699.93V9.968ZM711.796 16.112C711.017 16.112 710.313 15.9787 709.684 15.712C709.065 15.4453 708.575 15.0613 708.212 14.56C707.849 14.0587 707.663 13.4667 707.652 12.784H710.052C710.084 13.2427 710.244 13.6053 710.532 13.872C710.831 14.1387 711.236 14.272 711.748 14.272C712.271 14.272 712.681 14.1493 712.98 13.904C713.279 13.648 713.428 13.3173 713.428 12.912C713.428 12.5813 713.327 12.3093 713.124 12.096C712.921 11.8827 712.665 11.7173 712.356 11.6C712.057 11.472 711.641 11.3333 711.108 11.184C710.383 10.9707 709.791 10.7627 709.332 10.56C708.884 10.3467 708.495 10.032 708.164 9.616C707.844 9.18933 707.684 8.624 707.684 7.92C707.684 7.25867 707.849 6.68267 708.18 6.192C708.511 5.70133 708.975 5.328 709.572 5.072C710.169 4.80533 710.852 4.672 711.62 4.672C712.772 4.672 713.705 4.95467 714.42 5.52C715.145 6.07467 715.545 6.85333 715.62 7.856H713.156C713.135 7.472 712.969 7.15733 712.66 6.912C712.361 6.656 711.961 6.528 711.46 6.528C711.023 6.528 710.671 6.64 710.404 6.864C710.148 7.088 710.02 7.41333 710.02 7.84C710.02 8.13867 710.116 8.38933 710.308 8.592C710.511 8.784 710.756 8.944 711.044 9.072C711.343 9.18933 711.759 9.328 712.292 9.488C713.017 9.70133 713.609 9.91467 714.068 10.128C714.527 10.3413 714.921 10.6613 715.252 11.088C715.583 11.5147 715.748 12.0747 715.748 12.768C715.748 13.3653 715.593 13.92 715.284 14.432C714.975 14.944 714.521 15.3547 713.924 15.664C713.327 15.9627 712.617 16.112 711.796 16.112Z" fill="#465578"/>
<line x1="4.37114e-08" y1="30.5" x2="717" y2="30.5001" stroke="black"/>
<path d="M761.384 7.056C761.016 7.056 760.685 6.992 760.392 6.864C760.104 6.73067 759.877 6.54933 759.712 6.32C759.547 6.08533 759.461 5.816 759.456 5.512H760.232C760.259 5.77333 760.365 5.99467 760.552 6.176C760.744 6.352 761.021 6.44 761.384 6.44C761.731 6.44 762.003 6.35467 762.2 6.184C762.403 6.008 762.504 5.784 762.504 5.512C762.504 5.29867 762.445 5.12533 762.328 4.992C762.211 4.85867 762.064 4.75733 761.888 4.688C761.712 4.61867 761.475 4.544 761.176 4.464C760.808 4.368 760.512 4.272 760.288 4.176C760.069 4.08 759.88 3.93067 759.72 3.728C759.565 3.52 759.488 3.24267 759.488 2.896C759.488 2.592 759.565 2.32267 759.72 2.088C759.875 1.85333 760.091 1.672 760.368 1.544C760.651 1.416 760.973 1.352 761.336 1.352C761.859 1.352 762.285 1.48267 762.616 1.744C762.952 2.00533 763.141 2.352 763.184 2.784H762.384C762.357 2.57067 762.245 2.384 762.048 2.224C761.851 2.05867 761.589 1.976 761.264 1.976C760.96 1.976 760.712 2.056 760.52 2.216C760.328 2.37067 760.232 2.58933 760.232 2.872C760.232 3.07467 760.288 3.24 760.4 3.368C760.517 3.496 760.659 3.59467 760.824 3.664C760.995 3.728 761.232 3.80267 761.536 3.888C761.904 3.98933 762.2 4.09067 762.424 4.192C762.648 4.288 762.84 4.44 763 4.648C763.16 4.85067 763.24 5.128 763.24 5.48C763.24 5.752 763.168 6.008 763.024 6.248C762.88 6.488 762.667 6.68267 762.384 6.832C762.101 6.98133 761.768 7.056 761.384 7.056ZM768.311 4.64C768.311 4.77867 768.303 4.92533 768.287 5.08H764.783C764.81 5.512 764.957 5.85067 765.223 6.096C765.495 6.336 765.823 6.456 766.207 6.456C766.522 6.456 766.783 6.384 766.991 6.24C767.205 6.09067 767.354 5.89333 767.439 5.648H768.223C768.106 6.06933 767.871 6.41333 767.519 6.68C767.167 6.94133 766.73 7.072 766.207 7.072C765.791 7.072 765.418 6.97867 765.087 6.792C764.762 6.60533 764.506 6.34133 764.319 6C764.133 5.65333 764.039 5.25333 764.039 4.8C764.039 4.34667 764.13 3.94933 764.311 3.608C764.493 3.26667 764.746 3.00533 765.071 2.824C765.402 2.63733 765.781 2.544 766.207 2.544C766.623 2.544 766.991 2.63467 767.311 2.816C767.631 2.99733 767.877 3.248 768.047 3.568C768.223 3.88267 768.311 4.24 768.311 4.64ZM767.559 4.488C767.559 4.21067 767.498 3.97333 767.375 3.776C767.253 3.57333 767.085 3.42133 766.871 3.32C766.663 3.21333 766.431 3.16 766.175 3.16C765.807 3.16 765.493 3.27733 765.231 3.512C764.975 3.74667 764.829 4.072 764.791 4.488H767.559ZM769 4.8C769 4.34667 769.091 3.952 769.272 3.616C769.454 3.27467 769.704 3.01067 770.024 2.824C770.35 2.63733 770.72 2.544 771.136 2.544C771.675 2.544 772.118 2.67467 772.464 2.936C772.816 3.19733 773.048 3.56 773.16 4.024H772.376C772.302 3.75733 772.155 3.54667 771.936 3.392C771.723 3.23733 771.456 3.16 771.136 3.16C770.72 3.16 770.384 3.304 770.128 3.592C769.872 3.87467 769.744 4.27733 769.744 4.8C769.744 5.328 769.872 5.736 770.128 6.024C770.384 6.312 770.72 6.456 771.136 6.456C771.456 6.456 771.723 6.38133 771.936 6.232C772.15 6.08267 772.296 5.86933 772.376 5.592H773.16C773.043 6.04 772.808 6.4 772.456 6.672C772.104 6.93867 771.664 7.072 771.136 7.072C770.72 7.072 770.35 6.97867 770.024 6.792C769.704 6.60533 769.454 6.34133 769.272 6C769.091 5.65867 769 5.25867 769 4.8ZM778.02 2.616V7H777.292V6.352C777.153 6.576 776.958 6.752 776.708 6.88C776.462 7.00267 776.19 7.064 775.892 7.064C775.55 7.064 775.244 6.99467 774.972 6.856C774.7 6.712 774.484 6.49867 774.324 6.216C774.169 5.93333 774.092 5.58933 774.092 5.184V2.616H774.812V5.088C774.812 5.52 774.921 5.85333 775.14 6.088C775.358 6.31733 775.657 6.432 776.036 6.432C776.425 6.432 776.732 6.312 776.956 6.072C777.18 5.832 777.292 5.48267 777.292 5.024V2.616H778.02ZM779.977 3.328C780.105 3.07733 780.286 2.88267 780.521 2.744C780.761 2.60533 781.051 2.536 781.393 2.536V3.288H781.201C780.385 3.288 779.977 3.73067 779.977 4.616V7H779.249V2.616H779.977V3.328ZM782.609 1.904C782.471 1.904 782.353 1.856 782.257 1.76C782.161 1.664 782.113 1.54667 782.113 1.408C782.113 1.26933 782.161 1.152 782.257 1.056C782.353 0.96 782.471 0.912 782.609 0.912C782.743 0.912 782.855 0.96 782.945 1.056C783.041 1.152 783.089 1.26933 783.089 1.408C783.089 1.54667 783.041 1.664 782.945 1.76C782.855 1.856 782.743 1.904 782.609 1.904ZM782.961 2.616V7H782.233V2.616H782.961ZM785.09 3.216V5.8C785.09 6.01333 785.135 6.16533 785.226 6.256C785.317 6.34133 785.474 6.384 785.698 6.384H786.234V7H785.578C785.173 7 784.869 6.90667 784.666 6.72C784.463 6.53333 784.362 6.22667 784.362 5.8V3.216H783.794V2.616H784.362V1.512H785.09V2.616H786.234V3.216H785.09ZM790.892 2.616L788.252 9.064H787.5L788.364 6.952L786.596 2.616H787.404L788.78 6.168L790.14 2.616H790.892ZM762.768 9.424V10.016H760.344V11.896H762.312V12.488H760.344V15H759.616V9.424H762.768ZM767.647 12.64C767.647 12.7787 767.639 12.9253 767.623 13.08H764.119C764.146 13.512 764.293 13.8507 764.559 14.096C764.831 14.336 765.159 14.456 765.543 14.456C765.858 14.456 766.119 14.384 766.327 14.24C766.541 14.0907 766.69 13.8933 766.775 13.648H767.559C767.442 14.0693 767.207 14.4133 766.855 14.68C766.503 14.9413 766.066 15.072 765.543 15.072C765.127 15.072 764.754 14.9787 764.423 14.792C764.098 14.6053 763.842 14.3413 763.655 14C763.469 13.6533 763.375 13.2533 763.375 12.8C763.375 12.3467 763.466 11.9493 763.647 11.608C763.829 11.2667 764.082 11.0053 764.407 10.824C764.738 10.6373 765.117 10.544 765.543 10.544C765.959 10.544 766.327 10.6347 766.647 10.816C766.967 10.9973 767.213 11.248 767.383 11.568C767.559 11.8827 767.647 12.24 767.647 12.64ZM766.895 12.488C766.895 12.2107 766.834 11.9733 766.711 11.776C766.589 11.5733 766.421 11.4213 766.207 11.32C765.999 11.2133 765.767 11.16 765.511 11.16C765.143 11.16 764.829 11.2773 764.567 11.512C764.311 11.7467 764.165 12.072 764.127 12.488H766.895ZM768.336 12.792C768.336 12.344 768.427 11.952 768.608 11.616C768.79 11.2747 769.038 11.0107 769.352 10.824C769.672 10.6373 770.027 10.544 770.416 10.544C770.8 10.544 771.134 10.6267 771.416 10.792C771.699 10.9573 771.91 11.1653 772.048 11.416V10.616H772.784V15H772.048V14.184C771.904 14.44 771.688 14.6533 771.4 14.824C771.118 14.9893 770.787 15.072 770.408 15.072C770.019 15.072 769.667 14.976 769.352 14.784C769.038 14.592 768.79 14.3227 768.608 13.976C768.427 13.6293 768.336 13.2347 768.336 12.792ZM772.048 12.8C772.048 12.4693 771.982 12.1813 771.848 11.936C771.715 11.6907 771.534 11.504 771.304 11.376C771.08 11.2427 770.832 11.176 770.56 11.176C770.288 11.176 770.04 11.24 769.816 11.368C769.592 11.496 769.414 11.6827 769.28 11.928C769.147 12.1733 769.08 12.4613 769.08 12.792C769.08 13.128 769.147 13.4213 769.28 13.672C769.414 13.9173 769.592 14.1067 769.816 14.24C770.04 14.368 770.288 14.432 770.56 14.432C770.832 14.432 771.08 14.368 771.304 14.24C771.534 14.1067 771.715 13.9173 771.848 13.672C771.982 13.4213 772.048 13.1307 772.048 12.8ZM774.902 11.216V13.8C774.902 14.0133 774.948 14.1653 775.038 14.256C775.129 14.3413 775.286 14.384 775.51 14.384H776.046V15H775.39C774.985 15 774.681 14.9067 774.478 14.72C774.276 14.5333 774.174 14.2267 774.174 13.8V11.216H773.606V10.616H774.174V9.512H774.902V10.616H776.046V11.216H774.902ZM780.817 10.616V15H780.089V14.352C779.95 14.576 779.755 14.752 779.505 14.88C779.259 15.0027 778.987 15.064 778.689 15.064C778.347 15.064 778.041 14.9947 777.769 14.856C777.497 14.712 777.281 14.4987 777.121 14.216C776.966 13.9333 776.889 13.5893 776.889 13.184V10.616H777.609V13.088C777.609 13.52 777.718 13.8533 777.937 14.088C778.155 14.3173 778.454 14.432 778.833 14.432C779.222 14.432 779.529 14.312 779.753 14.072C779.977 13.832 780.089 13.4827 780.089 13.024V10.616H780.817ZM782.774 11.328C782.902 11.0773 783.083 10.8827 783.318 10.744C783.558 10.6053 783.848 10.536 784.19 10.536V11.288H783.998C783.182 11.288 782.774 11.7307 782.774 12.616V15H782.046V10.616H782.774V11.328ZM789.03 12.64C789.03 12.7787 789.022 12.9253 789.006 13.08H785.502C785.529 13.512 785.675 13.8507 785.942 14.096C786.214 14.336 786.542 14.456 786.926 14.456C787.241 14.456 787.502 14.384 787.71 14.24C787.923 14.0907 788.073 13.8933 788.158 13.648H788.942C788.825 14.0693 788.59 14.4133 788.238 14.68C787.886 14.9413 787.449 15.072 786.926 15.072C786.51 15.072 786.137 14.9787 785.806 14.792C785.481 14.6053 785.225 14.3413 785.038 14C784.851 13.6533 784.758 13.2533 784.758 12.8C784.758 12.3467 784.849 11.9493 785.03 11.608C785.211 11.2667 785.465 11.0053 785.79 10.824C786.121 10.6373 786.499 10.544 786.926 10.544C787.342 10.544 787.71 10.6347 788.03 10.816C788.35 10.9973 788.595 11.248 788.766 11.568C788.942 11.8827 789.03 12.24 789.03 12.64ZM788.278 12.488C788.278 12.2107 788.217 11.9733 788.094 11.776C787.971 11.5733 787.803 11.4213 787.59 11.32C787.382 11.2133 787.15 11.16 786.894 11.16C786.526 11.16 786.211 11.2773 785.95 11.512C785.694 11.7467 785.547 12.072 785.51 12.488H788.278ZM791.543 15.072C791.207 15.072 790.906 15.016 790.639 14.904C790.372 14.7867 790.162 14.6267 790.007 14.424C789.852 14.216 789.767 13.9787 789.751 13.712H790.503C790.524 13.9307 790.626 14.1093 790.807 14.248C790.994 14.3867 791.236 14.456 791.535 14.456C791.812 14.456 792.031 14.3947 792.191 14.272C792.351 14.1493 792.431 13.9947 792.431 13.808C792.431 13.616 792.346 13.4747 792.175 13.384C792.004 13.288 791.74 13.1947 791.383 13.104C791.058 13.0187 790.791 12.9333 790.583 12.848C790.38 12.7573 790.204 12.6267 790.055 12.456C789.911 12.28 789.839 12.0507 789.839 11.768C789.839 11.544 789.906 11.3387 790.039 11.152C790.172 10.9653 790.362 10.8187 790.607 10.712C790.852 10.6 791.132 10.544 791.447 10.544C791.932 10.544 792.324 10.6667 792.623 10.912C792.922 11.1573 793.082 11.4933 793.103 11.92H792.375C792.359 11.6907 792.266 11.5067 792.095 11.368C791.93 11.2293 791.706 11.16 791.423 11.16C791.162 11.16 790.954 11.216 790.799 11.328C790.644 11.44 790.567 11.5867 790.567 11.768C790.567 11.912 790.612 12.032 790.703 12.128C790.799 12.2187 790.916 12.2933 791.055 12.352C791.199 12.4053 791.396 12.4667 791.647 12.536C791.962 12.6213 792.218 12.7067 792.415 12.792C792.612 12.872 792.78 12.9947 792.919 13.16C793.063 13.3253 793.138 13.5413 793.143 13.808C793.143 14.048 793.076 14.264 792.943 14.456C792.81 14.648 792.62 14.8 792.375 14.912C792.135 15.0187 791.858 15.072 791.543 15.072ZM761.352 17.424C761.96 17.424 762.485 17.5387 762.928 17.768C763.376 17.992 763.717 18.3147 763.952 18.736C764.192 19.1573 764.312 19.6533 764.312 20.224C764.312 20.7947 764.192 21.2907 763.952 21.712C763.717 22.128 763.376 22.448 762.928 22.672C762.485 22.8907 761.96 23 761.352 23H759.616V17.424H761.352ZM761.352 22.4C762.072 22.4 762.621 22.2107 763 21.832C763.379 21.448 763.568 20.912 763.568 20.224C763.568 19.5307 763.376 18.9893 762.992 18.6C762.613 18.2107 762.067 18.016 761.352 18.016H760.344V22.4H761.352ZM769.272 20.64C769.272 20.7787 769.264 20.9253 769.248 21.08H765.744C765.771 21.512 765.918 21.8507 766.184 22.096C766.456 22.336 766.784 22.456 767.168 22.456C767.483 22.456 767.744 22.384 767.952 22.24C768.166 22.0907 768.315 21.8933 768.4 21.648H769.184C769.067 22.0693 768.832 22.4133 768.48 22.68C768.128 22.9413 767.691 23.072 767.168 23.072C766.752 23.072 766.379 22.9787 766.048 22.792C765.723 22.6053 765.467 22.3413 765.28 22C765.094 21.6533 765 21.2533 765 20.8C765 20.3467 765.091 19.9493 765.272 19.608C765.454 19.2667 765.707 19.0053 766.032 18.824C766.363 18.6373 766.742 18.544 767.168 18.544C767.584 18.544 767.952 18.6347 768.272 18.816C768.592 18.9973 768.838 19.248 769.008 19.568C769.184 19.8827 769.272 20.24 769.272 20.64ZM768.52 20.488C768.52 20.2107 768.459 19.9733 768.336 19.776C768.214 19.5733 768.046 19.4213 767.832 19.32C767.624 19.2133 767.392 19.16 767.136 19.16C766.768 19.16 766.454 19.2773 766.192 19.512C765.936 19.7467 765.79 20.072 765.752 20.488H768.52ZM771.121 19.216V21.8C771.121 22.0133 771.167 22.1653 771.257 22.256C771.348 22.3413 771.505 22.384 771.729 22.384H772.265V23H771.609C771.204 23 770.9 22.9067 770.697 22.72C770.495 22.5333 770.393 22.2267 770.393 21.8V19.216H769.825V18.616H770.393V17.512H771.121V18.616H772.265V19.216H771.121ZM772.875 20.792C772.875 20.344 772.966 19.952 773.147 19.616C773.329 19.2747 773.577 19.0107 773.891 18.824C774.211 18.6373 774.566 18.544 774.955 18.544C775.339 18.544 775.673 18.6267 775.955 18.792C776.238 18.9573 776.449 19.1653 776.587 19.416V18.616H777.323V23H776.587V22.184C776.443 22.44 776.227 22.6533 775.939 22.824C775.657 22.9893 775.326 23.072 774.947 23.072C774.558 23.072 774.206 22.976 773.891 22.784C773.577 22.592 773.329 22.3227 773.147 21.976C772.966 21.6293 772.875 21.2347 772.875 20.792ZM776.587 20.8C776.587 20.4693 776.521 20.1813 776.387 19.936C776.254 19.6907 776.073 19.504 775.843 19.376C775.619 19.2427 775.371 19.176 775.099 19.176C774.827 19.176 774.579 19.24 774.355 19.368C774.131 19.496 773.953 19.6827 773.819 19.928C773.686 20.1733 773.619 20.4613 773.619 20.792C773.619 21.128 773.686 21.4213 773.819 21.672C773.953 21.9173 774.131 22.1067 774.355 22.24C774.579 22.368 774.827 22.432 775.099 22.432C775.371 22.432 775.619 22.368 775.843 22.24C776.073 22.1067 776.254 21.9173 776.387 21.672C776.521 21.4213 776.587 21.1307 776.587 20.8ZM778.93 17.904C778.791 17.904 778.674 17.856 778.578 17.76C778.482 17.664 778.434 17.5467 778.434 17.408C778.434 17.2693 778.482 17.152 778.578 17.056C778.674 16.96 778.791 16.912 778.93 16.912C779.063 16.912 779.175 16.96 779.266 17.056C779.362 17.152 779.41 17.2693 779.41 17.408C779.41 17.5467 779.362 17.664 779.266 17.76C779.175 17.856 779.063 17.904 778.93 17.904ZM779.282 18.616V23H778.554V18.616H779.282ZM781.25 17.08V23H780.522V17.08H781.25ZM784.043 23.072C783.707 23.072 783.406 23.016 783.139 22.904C782.872 22.7867 782.662 22.6267 782.507 22.424C782.352 22.216 782.267 21.9787 782.251 21.712H783.003C783.024 21.9307 783.126 22.1093 783.307 22.248C783.494 22.3867 783.736 22.456 784.035 22.456C784.312 22.456 784.531 22.3947 784.691 22.272C784.851 22.1493 784.931 21.9947 784.931 21.808C784.931 21.616 784.846 21.4747 784.675 21.384C784.504 21.288 784.24 21.1947 783.883 21.104C783.558 21.0187 783.291 20.9333 783.083 20.848C782.88 20.7573 782.704 20.6267 782.555 20.456C782.411 20.28 782.339 20.0507 782.339 19.768C782.339 19.544 782.406 19.3387 782.539 19.152C782.672 18.9653 782.862 18.8187 783.107 18.712C783.352 18.6 783.632 18.544 783.947 18.544C784.432 18.544 784.824 18.6667 785.123 18.912C785.422 19.1573 785.582 19.4933 785.603 19.92H784.875C784.859 19.6907 784.766 19.5067 784.595 19.368C784.43 19.2293 784.206 19.16 783.923 19.16C783.662 19.16 783.454 19.216 783.299 19.328C783.144 19.44 783.067 19.5867 783.067 19.768C783.067 19.912 783.112 20.032 783.203 20.128C783.299 20.2187 783.416 20.2933 783.555 20.352C783.699 20.4053 783.896 20.4667 784.147 20.536C784.462 20.6213 784.718 20.7067 784.915 20.792C785.112 20.872 785.28 20.9947 785.419 21.16C785.563 21.3253 785.638 21.5413 785.643 21.808C785.643 22.048 785.576 22.264 785.443 22.456C785.31 22.648 785.12 22.8 784.875 22.912C784.635 23.0187 784.358 23.072 784.043 23.072ZM791.332 23.056C790.814 23.056 790.342 22.936 789.916 22.696C789.489 22.4507 789.15 22.112 788.9 21.68C788.654 21.2427 788.532 20.752 788.532 20.208C788.532 19.664 788.654 19.176 788.9 18.744C789.15 18.3067 789.489 17.968 789.916 17.728C790.342 17.4827 790.814 17.36 791.332 17.36C791.854 17.36 792.329 17.4827 792.756 17.728C793.182 17.968 793.518 18.304 793.764 18.736C794.009 19.168 794.132 19.6587 794.132 20.208C794.132 20.7573 794.009 21.248 793.764 21.68C793.518 22.112 793.182 22.4507 792.756 22.696C792.329 22.936 791.854 23.056 791.332 23.056ZM791.332 22.424C791.721 22.424 792.07 22.3333 792.38 22.152C792.694 21.9707 792.94 21.712 793.116 21.376C793.297 21.04 793.388 20.6507 793.388 20.208C793.388 19.76 793.297 19.3707 793.116 19.04C792.94 18.704 792.697 18.4453 792.388 18.264C792.078 18.0827 791.726 17.992 791.332 17.992C790.937 17.992 790.585 18.0827 790.276 18.264C789.966 18.4453 789.721 18.704 789.54 19.04C789.364 19.3707 789.276 19.76 789.276 20.208C789.276 20.6507 789.364 21.04 789.54 21.376C789.721 21.712 789.966 21.9707 790.276 22.152C790.59 22.3333 790.942 22.424 791.332 22.424ZM797.229 18.536C797.762 18.536 798.194 18.6987 798.525 19.024C798.855 19.344 799.021 19.808 799.021 20.416V23H798.301V20.52C798.301 20.0827 798.191 19.7493 797.973 19.52C797.754 19.2853 797.455 19.168 797.077 19.168C796.693 19.168 796.386 19.288 796.157 19.528C795.933 19.768 795.821 20.1173 795.821 20.576V23H795.093V18.616H795.821V19.24C795.965 19.016 796.159 18.8427 796.405 18.72C796.655 18.5973 796.93 18.536 797.229 18.536ZM762.408 28.128C762.611 28.16 762.795 28.2427 762.96 28.376C763.131 28.5093 763.264 28.6747 763.36 28.872C763.461 29.0693 763.512 29.28 763.512 29.504C763.512 29.7867 763.44 30.0427 763.296 30.272C763.152 30.496 762.941 30.6747 762.664 30.808C762.392 30.936 762.069 31 761.696 31H759.616V25.424H761.616C761.995 25.424 762.317 25.488 762.584 25.616C762.851 25.7387 763.051 25.9067 763.184 26.12C763.317 26.3333 763.384 26.5733 763.384 26.84C763.384 27.1707 763.293 27.4453 763.112 27.664C762.936 27.8773 762.701 28.032 762.408 28.128ZM760.344 27.832H761.568C761.909 27.832 762.173 27.752 762.36 27.592C762.547 27.432 762.64 27.2107 762.64 26.928C762.64 26.6453 762.547 26.424 762.36 26.264C762.173 26.104 761.904 26.024 761.552 26.024H760.344V27.832ZM761.632 30.4C761.995 30.4 762.277 30.3147 762.48 30.144C762.683 29.9733 762.784 29.736 762.784 29.432C762.784 29.1227 762.677 28.88 762.464 28.704C762.251 28.5227 761.965 28.432 761.608 28.432H760.344V30.4H761.632ZM764.25 28.792C764.25 28.344 764.341 27.952 764.522 27.616C764.704 27.2747 764.952 27.0107 765.266 26.824C765.586 26.6373 765.941 26.544 766.33 26.544C766.714 26.544 767.048 26.6267 767.33 26.792C767.613 26.9573 767.824 27.1653 767.962 27.416V26.616H768.698V31H767.962V30.184C767.818 30.44 767.602 30.6533 767.314 30.824C767.032 30.9893 766.701 31.072 766.322 31.072C765.933 31.072 765.581 30.976 765.266 30.784C764.952 30.592 764.704 30.3227 764.522 29.976C764.341 29.6293 764.25 29.2347 764.25 28.792ZM767.962 28.8C767.962 28.4693 767.896 28.1813 767.762 27.936C767.629 27.6907 767.448 27.504 767.218 27.376C766.994 27.2427 766.746 27.176 766.474 27.176C766.202 27.176 765.954 27.24 765.73 27.368C765.506 27.496 765.328 27.6827 765.194 27.928C765.061 28.1733 764.994 28.4613 764.994 28.792C764.994 29.128 765.061 29.4213 765.194 29.672C765.328 29.9173 765.506 30.1067 765.73 30.24C765.954 30.368 766.202 30.432 766.474 30.432C766.746 30.432 766.994 30.368 767.218 30.24C767.448 30.1067 767.629 29.9173 767.762 29.672C767.896 29.4213 767.962 29.1307 767.962 28.8ZM769.657 28.8C769.657 28.3467 769.747 27.952 769.929 27.616C770.11 27.2747 770.361 27.0107 770.681 26.824C771.006 26.6373 771.377 26.544 771.793 26.544C772.331 26.544 772.774 26.6747 773.121 26.936C773.473 27.1973 773.705 27.56 773.817 28.024H773.033C772.958 27.7573 772.811 27.5467 772.593 27.392C772.379 27.2373 772.113 27.16 771.793 27.16C771.377 27.16 771.041 27.304 770.785 27.592C770.529 27.8747 770.401 28.2773 770.401 28.8C770.401 29.328 770.529 29.736 770.785 30.024C771.041 30.312 771.377 30.456 771.793 30.456C772.113 30.456 772.379 30.3813 772.593 30.232C772.806 30.0827 772.953 29.8693 773.033 29.592H773.817C773.699 30.04 773.465 30.4 773.113 30.672C772.761 30.9387 772.321 31.072 771.793 31.072C771.377 31.072 771.006 30.9787 770.681 30.792C770.361 30.6053 770.11 30.3413 769.929 30C769.747 29.6587 769.657 29.2587 769.657 28.8ZM777.236 31L775.516 29.064V31H774.788V25.08H775.516V28.56L777.204 26.616H778.22L776.156 28.8L778.228 31H777.236ZM779.137 31.048C778.998 31.048 778.881 31 778.785 30.904C778.689 30.808 778.641 30.6907 778.641 30.552C778.641 30.4133 778.689 30.296 778.785 30.2C778.881 30.104 778.998 30.056 779.137 30.056C779.27 30.056 779.382 30.104 779.473 30.2C779.569 30.296 779.617 30.4133 779.617 30.552C779.617 30.6907 779.569 30.808 779.473 30.904C779.382 31 779.27 31.048 779.137 31.048Z" fill="black"/>
<path d="M748.389 12.668H746.556V10.2235C746.556 5.50594 742.718 1.66797 738 1.66797C733.282 1.66797 729.444 5.50594 729.444 10.2235V12.668H727.611C727.273 12.668 727 12.9413 727 13.2791V28.5569C727 29.905 728.096 31.0013 729.444 31.0013H746.556C747.904 31.0013 749 29.905 749 28.5568V13.2791C749 12.9413 748.727 12.668 748.389 12.668ZM739.83 25.4339C739.849 25.6063 739.793 25.7794 739.678 25.9089C739.562 26.0384 739.396 26.1124 739.222 26.1124H736.778C736.604 26.1124 736.438 26.0384 736.322 25.9089C736.207 25.7795 736.151 25.6064 736.17 25.4339L736.556 21.9672C735.93 21.5118 735.556 20.7915 735.556 20.0013C735.556 18.6532 736.652 17.5568 738 17.5568C739.348 17.5568 740.445 18.6531 740.445 20.0013C740.445 20.7915 740.07 21.5118 739.444 21.9672L739.83 25.4339ZM742.889 12.668H733.111V10.2235C733.111 7.52782 735.304 5.33464 738 5.33464C740.696 5.33464 742.889 7.52782 742.889 10.2235V12.668Z" fill="black"/>
</svg>
